<?xml version="1.0" ?>
<svg xmlns="http://www.w3.org/2000/svg" width="1000" height="1000">
  <g>
    <rect x="100" y="100" width="800" height="800" fill="#808080" fill-opacity="0.25" stroke="#808080" stroke-width="1"/>
    <g>
      <rect x="145" y="648" width="135" height="159" fill="#808080" fill-opacity="0.25" stroke="#808080" stroke-width="1"/>
      <g>
        <rect x="146" y="702" width="87" height="42" fill="#808080" fill-opacity="0.25" stroke="#808080" stroke-width="1"/>
      </g>
      <g>
        <rect x="145" y="648" width="87" height="42" fill="#808080" fill-opacity="0.25" stroke="#808080" stroke-width="1"/>
      </g>
      <g>
        <rect x="193" y="764" width="87" height="43" fill="#808080" fill-opacity="0.25" stroke="#808080" stroke-width="1"/>
      </g>
    </g>
    <g>
      <rect x="446" y="531" width="97" height="191" fill="#808080" fill-opacity="0.25" stroke="#808080" stroke-width="1"/>
      <g>
        <rect x="446" y="616" width="87" height="42" fill="#808080" fill-opacity="0.25" stroke="#808080" stroke-width="1"/>
      </g>
      <g>
        <rect x="455" y="531" width="88" height="43" fill="#808080" fill-opacity="0.25" stroke="#808080" stroke-width="1"/>
      </g>
      <g>
        <rect x="447" y="679" width="87" height="43" fill="#808080" fill-opacity="0.25" stroke="#808080" stroke-width="1"/>
      </g>
    </g>
    <g>
      <rect x="247" y="832" width="456" height="68" fill="#808080" fill-opacity="0.25" stroke="#808080" stroke-width="1"/>
      <g>
        <rect x="247" y="840" width="87" height="42" fill="#808080" fill-opacity="0.25" stroke="#808080" stroke-width="1"/>
      </g>
      <g>
        <rect x="372" y="857" width="87" height="43" fill="#808080" fill-opacity="0.25" stroke="#808080" stroke-width="1"/>
      </g>
      <g>
        <rect x="616" y="832" width="87" height="43" fill="#808080" fill-opacity="0.25" stroke="#808080" stroke-width="1"/>
      </g>
    </g>
    <g>
      <rect x="176" y="100" width="287" height="221" fill="#808080" fill-opacity="0.25" stroke="#808080" stroke-width="1"/>
      <g>
        <rect x="180" y="100" width="87" height="42" fill="#808080" fill-opacity="0.25" stroke="#808080" stroke-width="1"/>
      </g>
      <g>
        <rect x="176" y="273" width="87" height="43" fill="#808080" fill-opacity="0.25" stroke="#808080" stroke-width="1"/>
      </g>
      <g>
        <rect x="341" y="279" width="87" height="42" fill="#808080" fill-opacity="0.25" stroke="#808080" stroke-width="1"/>
      </g>
      <g>
        <rect x="376" y="211" width="87" height="43" fill="#808080" fill-opacity="0.25" stroke="#808080" stroke-width="1"/>
      </g>
      <g>
        <rect x="269" y="158" width="87" height="43" fill="#808080" fill-opacity="0.25" stroke="#808080" stroke-width="1"/>
      </g>
    </g>
    <g>
      <rect x="613" y="343" width="287" height="323" fill="#808080" fill-opacity="0.25" stroke="#808080" stroke-width="1"/>
      <g>
        <rect x="785" y="505" width="87" height="42" fill="#808080" fill-opacity="0.25" stroke="#808080" stroke-width="1"/>
      </g>
      <g>
        <rect x="812" y="623" width="88" height="43" fill="#808080" fill-opacity="0.25" stroke="#808080" stroke-width="1"/>
      </g>
      <g>
        <rect x="613" y="343" width="87" height="43" fill="#808080" fill-opacity="0.25" stroke="#808080" stroke-width="1"/>
      </g>
    </g>
    <g>
      <rect x="100" y="466" width="227" height="109" fill="#808080" fill-opacity="0.25" stroke="#808080" stroke-width="1"/>
      <g>
        <rect x="240" y="532" width="87" height="43" fill="#808080" fill-opacity="0.25" stroke="#808080" stroke-width="1"/>
      </g>
      <g>
        <rect x="100" y="466" width="87" height="43" fill="#808080" fill-opacity="0.25" stroke="#808080" stroke-width="1"/>
      </g>
    </g>
    <g>
      <rect x="360" y="377" width="311" height="128" fill="#808080" fill-opacity="0.25" stroke="#808080" stroke-width="1"/>
      <g>
        <rect x="360" y="377" width="88" height="43" fill="#808080" fill-opacity="0.25" stroke="#808080" stroke-width="1"/>
      </g>
      <g>
        <rect x="584" y="462" width="87" height="43" fill="#808080" fill-opacity="0.25" stroke="#808080" stroke-width="1"/>
      </g>
    </g>
    <g>
      <rect x="592" y="658" width="200" height="104" fill="#808080" fill-opacity="0.25" stroke="#808080" stroke-width="1"/>
      <g>
        <rect x="592" y="658" width="87" height="43" fill="#808080" fill-opacity="0.25" stroke="#808080" stroke-width="1"/>
      </g>
      <g>
        <rect x="705" y="719" width="87" height="43" fill="#808080" fill-opacity="0.25" stroke="#808080" stroke-width="1"/>
      </g>
    </g>
    <g>
      <rect x="286" y="652" width="185" height="153" fill="#808080" fill-opacity="0.25" stroke="#808080" stroke-width="1"/>
      <g>
        <rect x="384" y="762" width="87" height="43" fill="#808080" fill-opacity="0.25" stroke="#808080" stroke-width="1"/>
      </g>
      <g>
        <rect x="286" y="652" width="88" height="42" fill="#808080" fill-opacity="0.25" stroke="#808080" stroke-width="1"/>
      </g>
    </g>
  </g>
</svg>
